<?xml version="1.0" standalone="no"?>
<!DOCTYPE svg PUBLIC "-//W3C//DTD SVG 20010904//EN"
 "http://www.w3.org/TR/2001/REC-SVG-20010904/DTD/svg10.dtd">
<svg version="1.0" xmlns="http://www.w3.org/2000/svg"
 width="4676.000000pt" height="4676.000000pt" viewBox="0 0 4676.000000 4676.000000"
 preserveAspectRatio="xMidYMid meet">
<metadata>
Created by potrace 1.16, written by Peter Selinger 2001-2019
</metadata>
<g transform="translate(0.000000,4676.000000) scale(0.100000,-0.100000)"
fill="#000000" stroke="none">
<path d="M22345 41479 c-158 -14 -389 -56 -602 -109 -108 -27 -200 -53 -204
-57 -4 -5 -10 -136 -13 -293 -4 -157 -9 -362 -12 -457 l-6 -172 -400 -212
c-219 -116 -405 -209 -411 -206 -7 3 -169 107 -362 232 -192 126 -362 235
-376 244 -25 14 -29 14 -62 -12 -67 -51 -243 -215 -363 -339 -154 -159 -336
-378 -331 -398 2 -8 93 -143 202 -300 109 -157 224 -322 256 -368 l57 -83
-185 -377 c-102 -207 -192 -392 -201 -409 -9 -18 -23 -33 -31 -33 -100 -1
-896 -51 -902 -57 -9 -10 -62 -249 -89 -402 -23 -132 -46 -344 -56 -517 l-7
-121 189 -66 c104 -36 288 -100 409 -142 288 -99 273 -92 279 -123 8 -38 144
-822 148 -849 2 -18 -42 -59 -252 -229 -140 -114 -301 -245 -357 -291 l-102
-83 41 -98 c100 -240 245 -516 383 -727 l73 -114 94 29 c51 15 215 65 363 110
149 45 305 92 348 106 l78 24 322 -311 c177 -171 323 -317 325 -325 2 -8 -11
-69 -28 -137 -38 -148 -189 -715 -196 -739 -7 -23 189 -139 451 -268 192 -95
478 -214 495 -208 7 2 320 411 509 665 35 48 52 62 71 62 14 0 218 -28 454
-62 l428 -62 52 -130 c29 -71 103 -264 166 -427 l115 -298 38 0 c64 0 315 30
467 56 139 24 505 109 528 123 7 4 13 115 17 336 3 182 8 389 11 461 l6 130
398 213 c363 193 401 211 422 200 13 -7 186 -117 386 -246 200 -128 366 -233
369 -233 23 0 333 291 467 438 120 133 266 309 266 320 -1 4 -117 174 -260
377 -143 204 -259 375 -259 380 -1 20 386 808 400 815 8 4 190 17 404 29 215
12 418 24 451 27 l61 5 32 147 c56 258 89 501 106 793 l7 107 -139 46 c-76 25
-273 93 -438 150 l-300 104 -77 428 c-42 236 -77 439 -77 451 -1 17 77 86 349
309 193 158 350 293 350 300 0 39 -178 413 -285 600 -75 130 -202 324 -213
324 -5 0 -87 -24 -183 -54 -415 -129 -672 -206 -686 -206 -12 0 -327 296 -601
565 l-63 62 116 443 c63 244 112 447 108 451 -23 23 -290 172 -438 244 -187
91 -448 198 -472 193 -9 -2 -139 -165 -290 -364 l-274 -361 -442 64 c-243 35
-447 65 -452 67 -6 2 -78 179 -159 392 -82 214 -155 406 -163 427 l-15 37 -67
-1 c-36 -1 -111 -6 -166 -10z m711 -1559 c712 -57 1365 -350 1868 -840 527
-513 838 -1163 907 -1893 16 -177 7 -533 -19 -702 -61 -395 -171 -713 -361
-1045 -488 -852 -1309 -1394 -2286 -1511 -158 -19 -539 -17 -695 4 -696 94
-1257 362 -1734 827 -249 242 -434 492 -585 790 -310 608 -404 1295 -270 1969
90 451 314 929 606 1291 213 266 498 512 804 694 414 248 833 378 1354 419 95
8 292 6 411 -3z"/>
<path d="M22595 39619 c-643 -60 -1237 -340 -1687 -795 -424 -429 -673 -937
-764 -1559 -27 -182 -25 -543 5 -734 90 -589 358 -1121 770 -1531 313 -311
697 -542 1111 -670 505 -155 991 -168 1487 -39 976 253 1737 1043 1957 2031
53 236 60 306 61 588 0 277 -6 344 -51 562 -114 549 -414 1074 -824 1445 -417
377 -929 615 -1485 688 -147 20 -445 27 -580 14z m475 -659 c372 -46 727 -191
1025 -419 90 -68 258 -235 335 -331 500 -628 599 -1468 255 -2178 -169 -350
-407 -621 -730 -835 -118 -78 -343 -187 -477 -231 -371 -123 -784 -136 -1163
-37 -585 153 -1060 542 -1327 1086 -143 292 -208 574 -208 907 0 855 526 1612
1337 1922 115 44 311 93 439 110 121 17 400 20 514 6z"/>
<path d="M11603 31210 c-79 -12 -179 -45 -325 -106 -432 -182 -796 -404 -1025
-627 l-62 -61 -118 22 c-274 50 -575 55 -778 12 -491 -103 -959 -417 -1236
-829 -176 -261 -255 -494 -266 -781 -8 -235 33 -474 124 -704 49 -126 160
-343 232 -454 70 -107 57 -104 204 -41 l88 37 26 -41 c53 -84 132 -244 163
-332 17 -49 42 -107 56 -128 25 -39 89 -76 129 -77 38 0 80 37 112 97 20 37
55 79 93 112 71 62 90 96 126 226 20 71 42 120 82 184 91 145 102 172 102 249
0 59 -5 80 -33 136 l-34 67 96 66 c125 86 315 233 415 319 115 101 109 98 230
110 61 7 152 24 201 39 129 39 196 38 310 -7 102 -40 421 -131 538 -153 112
-21 247 -19 343 5 324 83 623 392 685 708 10 54 9 82 -6 183 -9 65 -14 134
-11 153 14 74 68 112 212 147 129 32 178 60 210 121 19 36 18 98 -2 126 -25
36 -64 50 -192 66 -139 18 -218 45 -268 89 -45 39 -58 65 -84 167 -11 47 -31
101 -45 122 l-24 36 35 89 c53 131 75 225 76 329 0 113 -19 176 -72 237 -66
74 -181 107 -307 87z"/>
<path d="M26630 30644 c-19 -2 -91 -9 -160 -15 -414 -35 -843 -138 -1255 -301
-161 -63 -578 -265 -610 -296 -11 -10 -23 -19 -28 -20 -4 -1 -15 -6 -25 -12
-15 -10 -15 -11 3 -4 25 10 415 12 435 3 8 -4 67 -14 130 -24 223 -32 610
-132 929 -239 73 -25 137 -43 141 -41 5 3 11 -1 13 -7 4 -10 6 -10 6 -1 1 7 7
10 15 7 8 -3 40 -1 72 5 238 43 603 61 854 42 407 -31 750 -109 1120 -254 187
-74 579 -277 641 -333 10 -9 23 -13 30 -8 8 4 10 3 5 -4 -7 -11 6 -17 27 -13
5 1 6 -3 2 -8 -3 -6 5 -15 17 -22 31 -16 164 -117 268 -202 199 -165 519 -510
655 -707 20 -30 41 -54 46 -53 5 2 8 0 8 -5 -3 -20 2 -32 13 -26 7 4 8 3 4 -5
-4 -6 2 -24 14 -39 26 -34 108 -172 162 -274 23 -43 45 -78 50 -78 5 0 7 -4 4
-8 -3 -5 6 -33 20 -63 196 -419 303 -818 345 -1277 15 -170 7 -583 -15 -752
-52 -394 -164 -780 -327 -1125 -23 -49 -42 -96 -42 -102 0 -7 -4 -13 -8 -13
-6 0 -16 -16 -81 -139 -12 -25 -27 -50 -31 -55 -5 -6 -17 -26 -28 -44 l-20
-34 -28 39 c-72 99 -205 185 -341 218 -103 26 -315 31 -445 11 -203 -32 -357
-76 -545 -158 -349 -151 -608 -325 -860 -577 -155 -156 -272 -310 -349 -462
-91 -178 -106 -236 -106 -404 1 -156 14 -207 80 -305 19 -28 31 -50 29 -50 -3
0 -67 -8 -142 -17 -169 -21 -633 -24 -792 -5 -295 36 -517 82 -753 159 l-107
35 -418 -10 c-229 -5 -511 -10 -626 -12 l-208 -2 -18 53 c-10 30 -126 369
-258 754 -131 385 -242 718 -245 740 -4 30 -16 49 -46 75 -35 32 -38 38 -27
58 29 55 40 56 341 64 285 6 354 13 367 32 18 26 9 95 -28 224 -6 21 -4 22 55
22 48 0 65 4 81 20 26 26 26 80 1 111 -17 21 -30 25 -112 29 l-92 5 -54 160
c-29 88 -53 163 -53 167 0 5 26 8 58 8 48 0 62 4 80 23 28 30 28 76 1 111 -19
24 -26 26 -104 26 -54 0 -86 4 -92 13 -9 10 -103 270 -103 283 0 2 41 4 90 4
77 0 93 3 110 20 26 26 26 80 0 113 -20 25 -25 26 -138 29 l-117 3 -35 100
c-30 84 -38 100 -55 98 -11 -1 -67 -9 -125 -17 -201 -30 -653 -86 -657 -83 -2
2 2 18 8 36 7 18 8 48 4 69 -3 20 -8 48 -9 63 -1 14 -209 629 -461 1368 l-459
1343 -19 -34 c-10 -18 -76 -139 -146 -268 -207 -381 -421 -750 -723 -1245
-125 -205 -277 -472 -334 -586 -45 -89 -267 -487 -349 -625 -331 -552 -728
-1005 -1245 -1419 -168 -134 -1243 -955 -1685 -1286 -523 -393 -699 -521
-1395 -1019 -333 -238 -609 -436 -614 -440 -7 -7 1551 -2137 1604 -2194 17
-17 34 -5 501 351 1519 1159 2978 2250 3230 2413 197 128 521 269 676 296 15
3 42 9 58 14 77 23 286 61 450 80 266 32 720 34 1055 6 431 -37 391 -29 458
-91 110 -102 120 -109 140 -94 15 13 16 12 4 -3 -11 -14 -5 -22 49 -65 34 -26
66 -47 71 -45 4 1 7 -2 6 -7 -4 -13 241 -191 261 -191 6 0 11 -4 11 -8 0 -9
50 -40 64 -40 5 0 12 -4 15 -9 7 -11 117 -78 224 -137 59 -33 70 -36 85 -25
15 13 16 12 4 -2 -11 -15 -3 -22 70 -57 65 -32 86 -38 98 -29 8 6 12 7 7 2 -6
-8 68 -65 85 -65 4 0 31 -11 60 -23 49 -22 151 -62 273 -108 212 -78 532 -159
813 -204 408 -66 927 -72 1337 -14 408 57 816 169 1175 324 47 20 92 39 100
41 10 3 31 -22 67 -83 l51 -88 -53 -55 c-63 -66 -75 -87 -75 -135 0 -68 52
-145 123 -182 42 -21 110 -20 143 3 54 38 56 39 60 29 3 -5 40 -71 84 -145
l79 -135 -61 -62 c-57 -58 -62 -65 -66 -116 -9 -109 77 -207 183 -207 50 0 76
10 114 44 13 11 26 17 28 11 2 -5 42 -73 88 -150 l83 -140 -51 -50 c-29 -27
-60 -61 -69 -75 -41 -59 -7 -169 70 -227 36 -27 53 -33 93 -33 53 0 80 10 116
43 13 11 25 19 27 16 2 -2 43 -69 90 -149 l86 -145 -53 -50 c-75 -71 -87 -92
-87 -151 0 -71 40 -132 111 -168 85 -42 118 -35 206 46 l58 54 255 -16 c309
-20 351 -14 415 61 25 31 285 538 285 558 0 5 -27 55 -60 111 l-60 102 55 64
c35 39 57 74 58 90 2 25 -3 29 -58 45 -70 20 -484 134 -760 209 -104 29 -192
53 -193 55 -2 2 3 38 12 80 9 43 16 80 16 84 0 4 -62 6 -137 3 l-138 -3 -255
109 c-420 181 -515 223 -524 232 -8 8 106 315 124 333 4 5 93 -8 196 -28 104
-20 225 -43 269 -51 44 -8 91 -17 104 -20 l24 -5 -7 96 -6 96 42 -24 c112 -65
346 -201 375 -219 l33 -19 6 40 c6 37 9 41 36 41 25 0 27 2 19 18 -8 15 -1 28
40 68 68 66 82 95 77 160 -9 111 -102 191 -215 185 -13 -1 -41 -17 -62 -37
l-40 -35 -71 123 c-40 68 -79 134 -87 147 -14 22 -13 26 45 85 73 74 90 118
72 182 -15 52 -76 126 -119 144 l-30 12 144 141 c80 77 145 144 145 149 0 5
15 21 33 37 43 39 183 210 179 222 -1 5 2 8 7 7 14 -4 62 63 54 75 -3 6 -1 7
5 3 13 -8 75 78 64 89 -4 5 -2 5 4 2 9 -5 171 226 214 307 10 17 32 54 49 81
32 51 39 71 19 59 -7 -4 -8 -3 -4 5 4 6 11 9 16 6 5 -3 15 7 23 22 78 154 126
252 191 396 111 243 264 753 290 962 2 17 6 37 9 45 7 17 31 177 49 335 21
175 17 804 -5 980 -55 432 -148 801 -300 1185 -62 157 -242 525 -311 635 -146
231 -218 335 -229 328 -6 -3 -7 -1 -3 5 8 13 -101 158 -116 154 -5 -1 -7 2 -3
8 12 19 -276 347 -295 335 -5 -3 -8 0 -5 7 7 18 -120 142 -136 133 -8 -5 -10
-4 -5 4 17 27 -468 432 -496 415 -6 -4 -8 -3 -4 4 6 10 -38 41 -249 177 -158
102 -479 270 -497 259 -7 -4 -8 -3 -4 4 4 8 0 12 -11 12 -11 0 -23 4 -29 8
-13 12 -185 86 -274 117 -456 161 -831 242 -1275 275 -128 9 -510 11 -595 4z"/>
<path d="M35539 29055 c-166 -31 -285 -92 -382 -195 -129 -136 -193 -322 -167
-485 24 -154 95 -249 305 -408 218 -165 268 -226 435 -532 167 -306 274 -435
418 -508 101 -50 182 -62 335 -47 151 15 197 9 521 -66 272 -63 394 -104 503
-166 291 -166 402 -511 282 -873 -61 -182 -146 -310 -339 -510 -137 -142 -182
-207 -161 -228 42 -42 363 62 573 186 117 69 202 131 299 218 l76 68 13 -42
c60 -204 498 -724 690 -821 124 -62 232 -47 314 44 76 84 102 190 91 370 -20
331 -119 690 -276 996 l-58 114 19 45 c60 139 90 309 90 504 0 441 -157 756
-600 1202 -100 101 -181 173 -230 204 -362 234 -868 303 -1299 178 -202 -58
-321 -144 -321 -231 l0 -33 -32 18 c-64 35 -183 164 -218 236 -31 64 -33 76
-41 220 -10 177 -19 220 -62 301 -60 113 -158 191 -286 229 -89 26 -380 33
-492 12z"/>
<path d="M10480 26261 c-81 -25 -153 -84 -166 -137 -10 -40 2 -99 27 -134 13
-18 68 -63 121 -101 163 -116 251 -217 333 -380 128 -254 188 -551 235 -1159
27 -363 38 -966 17 -986 -3 -4 -150 -30 -326 -58 -177 -29 -323 -55 -326 -58
-4 -3 20 -59 53 -124 33 -66 84 -178 115 -249 105 -249 42 -176 807 -933 355
-351 396 -388 393 -359 -5 41 -89 929 -140 1456 l-38 403 -51 -6 c-27 -3 -64
-8 -81 -12 l-30 -6 -7 114 c-20 316 -64 765 -112 1118 -57 425 -161 995 -209
1150 -95 299 -284 471 -515 469 -41 0 -86 -4 -100 -8z"/>
<path d="M8950 26225 c-132 -23 -227 -67 -310 -142 -154 -138 -213 -349 -189
-675 6 -79 12 -144 13 -145 1 -1 26 35 56 80 73 111 173 210 247 245 47 22 72
27 133 27 66 0 84 -4 144 -34 170 -84 333 -303 392 -530 14 -54 26 -76 69
-121 100 -105 173 -234 300 -525 60 -140 168 -370 179 -382 7 -8 3 932 -5
1032 -35 472 -193 826 -458 1027 -162 122 -383 178 -571 143z"/>
<path d="M35699 24915 c-191 -30 -373 -89 -471 -154 -161 -105 -247 -240 -354
-556 -193 -566 -321 -1154 -389 -1785 -9 -80 -24 -216 -35 -303 -11 -88 -23
-209 -27 -270 l-6 -111 49 35 c27 20 168 118 314 219 146 101 267 185 269 187
3 2 13 115 23 251 46 653 128 1042 310 1477 73 176 297 615 368 723 67 101
157 203 233 264 l49 38 -124 -1 c-67 -1 -162 -7 -209 -14z"/>
<path d="M37332 24650 c-113 -24 -214 -93 -286 -193 -80 -114 -135 -246 -236
-567 -58 -187 -154 -539 -148 -545 2 -3 51 14 108 36 131 52 266 86 398 102
l103 12 60 155 c101 262 252 550 406 775 40 58 53 83 46 94 -18 28 -118 90
-178 111 -68 24 -207 34 -273 20z"/>
<path d="M37005 21591 c-6 -5 -140 -89 -300 -186 -609 -371 -1059 -690 -2075
-1470 -151 -116 -280 -214 -287 -218 -6 -4 -150 31 -319 78 -169 46 -309 83
-312 81 -2 -3 -208 -818 -457 -1813 -250 -994 -459 -1828 -466 -1853 -10 -36
-10 -647 0 -2984 l12 -2940 651 -2741 c357 -1507 656 -2745 663 -2750 9 -8
-64 -66 -286 -230 -165 -120 -299 -221 -298 -224 0 -3 22 -98 48 -211 46 -200
48 -205 72 -202 47 5 1384 325 1393 333 6 6 -8 106 -37 261 -26 139 -48 256
-47 261 0 4 47 7 105 7 l105 0 -6 402 c-3 222 -18 1656 -34 3188 l-29 2785
134 1009 c74 554 136 1011 139 1014 4 3 6 -6 6 -19 0 -13 20 -314 45 -669 l46
-645 556 -2800 c306 -1540 559 -2803 562 -2806 3 -3 112 7 241 22 129 16 239
27 245 25 5 -1 -86 -35 -203 -76 -117 -40 -215 -76 -217 -81 -3 -4 -20 -106
-37 -226 l-32 -218 73 -415 c41 -228 77 -418 80 -422 8 -9 478 35 488 46 5 4
29 287 55 629 l46 621 -29 79 c-20 55 -26 83 -19 87 6 4 69 13 140 20 l129 13
5 51 c4 28 65 1019 136 2201 l130 2150 245 2350 c135 1292 246 2365 246 2385
1 22 -73 240 -206 610 l-207 575 -53 520 c-30 286 -56 545 -59 575 -3 30 -11
102 -16 160 -6 58 -13 125 -16 150 -7 68 -334 3314 -334 3317 0 2 -93 3 -206
3 l-207 0 5 100 c3 55 4 100 3 100 0 0 -5 -4 -10 -9z"/>
<path d="M9764 20589 c3 -13 12 -73 21 -134 9 -60 18 -120 20 -132 5 -21 -47
-39 -1097 -387 l-1103 -365 -137 -333 c-75 -183 -216 -524 -312 -758 -97 -233
-176 -433 -176 -443 0 -11 49 -265 110 -565 60 -301 128 -671 150 -822 163
-1101 498 -3030 906 -5226 l87 -470 -730 -2850 c-491 -1914 -727 -2851 -719
-2855 6 -3 89 -21 184 -40 94 -18 172 -36 172 -40 0 -4 -38 -39 -85 -80 l-85
-73 0 -185 0 -186 359 -405 c392 -442 387 -437 570 -516 286 -124 540 -62 653
158 28 55 32 75 36 160 8 182 -23 236 -273 468 l-182 170 -42 151 c-23 83 -40
153 -38 156 3 2 89 -13 191 -34 122 -25 188 -35 195 -28 5 6 541 1359 1190
3008 l1182 2998 41 557 c22 306 42 559 44 561 6 6 -12 38 289 -519 153 -283
309 -571 347 -640 38 -69 71 -136 74 -150 2 -14 85 -1323 184 -2910 100 -1587
183 -2900 186 -2918 5 -33 7 -34 45 -30 24 2 39 -1 39 -8 0 -6 -21 -56 -46
-112 -25 -56 -44 -108 -42 -116 2 -7 159 -192 351 -409 335 -381 351 -397 430
-443 268 -158 507 -175 678 -50 52 39 109 120 133 189 23 67 21 202 -3 271
-30 87 -70 134 -259 310 l-179 167 -12 145 c-7 81 -11 147 -9 149 2 1 108 11
235 22 128 11 236 23 240 26 5 6 236 3092 438 5877 l47 645 -531 2168 c-292
1193 -531 2170 -531 2173 0 4 -320 -260 -1060 -876 -572 -476 -900 -748 -1265
-1049 -143 -117 -320 -266 -393 -330 -174 -151 -259 -214 -356 -263 -234 -118
-443 -103 -812 59 -447 196 -896 585 -1144 993 -66 109 -158 298 -203 422 -48
129 -78 236 -126 458 -70 323 -81 402 -76 560 3 148 31 250 93 346 55 84 126
145 308 261 87 55 238 156 334 223 96 67 289 200 428 294 391 265 606 411
1012 686 673 455 2053 1392 2157 1464 57 38 100 73 95 77 -4 3 -263 167 -577
364 -759 477 -880 554 -1285 809 -189 120 -350 221 -358 223 -9 4 -12 -1 -8
-18z"/>
<path d="M9278 15930 c-329 -83 -548 -366 -548 -704 0 -129 19 -208 77 -326
39 -77 62 -109 132 -180 145 -145 305 -211 511 -211 204 0 375 72 516 216 126
128 193 286 201 470 6 142 -12 230 -73 355 -40 80 -61 109 -138 186 -99 98
-175 144 -301 184 -102 32 -273 37 -377 10z m342 -81 c114 -31 184 -73 281
-169 135 -133 193 -274 191 -460 -1 -215 -115 -418 -299 -537 -34 -22 -102
-53 -150 -69 -77 -25 -102 -29 -198 -28 -91 1 -124 5 -191 27 -250 82 -426
305 -450 569 -15 169 59 369 184 494 175 175 394 235 632 173z"/>
<path d="M26582 13439 c-213 -36 -408 -162 -492 -320 -19 -35 -55 -97 -81
-137 -92 -140 -124 -259 -123 -447 1 -118 5 -156 28 -240 31 -120 113 -291
189 -397 l56 -77 -131 -248 c-71 -137 -131 -250 -133 -251 -2 -2 -28 3 -58 12
-110 32 -170 11 -215 -76 -54 -105 -33 -239 42 -275 20 -9 36 -20 36 -25 0
-10 -79 -168 -92 -185 -7 -9 -23 -7 -65 8 -69 23 -97 24 -134 2 -91 -54 -89
-242 3 -289 18 -9 35 -18 36 -20 4 -2 -127 -254 -132 -254 -1 0 -27 9 -58 20
-69 24 -109 18 -143 -22 -61 -72 -38 -190 45 -233 l28 -15 -55 -107 c-31 -60
-57 -110 -59 -112 -2 -2 -24 4 -50 13 -74 25 -108 21 -138 -15 -31 -36 -36
-111 -10 -160 14 -28 98 -79 131 -79 6 0 60 -69 119 -152 123 -175 146 -202
183 -218 15 -6 136 -28 270 -49 l242 -38 41 59 c22 33 45 61 51 64 7 2 46 -7
86 -21 41 -14 88 -25 105 -25 72 0 134 75 122 148 -7 45 -38 78 -95 98 -25 10
-50 21 -55 25 -4 4 25 54 65 111 40 56 73 104 74 105 0 1 42 -11 93 -27 107
-35 109 -35 162 -14 77 31 114 140 71 210 -18 29 -55 49 -139 75 -9 3 13 42
63 114 42 61 83 116 90 123 11 12 27 10 98 -12 130 -40 178 -33 239 31 35 37
48 73 48 133 0 68 -33 105 -111 127 -33 9 -59 20 -59 25 0 7 93 144 145 216 2
2 39 -6 83 -17 101 -26 152 -26 201 -1 88 44 154 172 137 264 -9 49 -48 83
-112 97 -30 7 -54 14 -54 16 0 3 21 36 48 74 42 61 50 68 72 63 150 -36 401
-45 537 -19 267 51 487 195 599 393 15 26 48 81 75 122 87 136 109 212 109
373 0 278 -145 562 -435 853 -318 320 -723 529 -1155 599 -103 16 -349 19
-438 4z"/>
<path d="M22845 6709 c-605 -28 -1110 -473 -1232 -1086 -26 -130 -23 -366 5
-500 58 -268 164 -471 348 -663 185 -192 391 -309 664 -378 94 -23 125 -26
285 -27 200 0 262 9 425 61 342 109 621 352 781 679 104 215 145 406 135 640
-6 154 -26 259 -76 400 -111 313 -339 573 -639 729 -225 116 -423 158 -696
145z"/>
</g>
</svg>
