<?xml version="1.0" standalone="no"?>
<!DOCTYPE svg PUBLIC "-//W3C//DTD SVG 20010904//EN"
 "http://www.w3.org/TR/2001/REC-SVG-20010904/DTD/svg10.dtd">
<svg version="1.0" xmlns="http://www.w3.org/2000/svg"
 width="200.000000pt" height="200.000000pt" viewBox="0 0 200.000000 200.000000"
 preserveAspectRatio="xMidYMid meet">

<g transform="translate(0.000000,200.000000) scale(0.100000,-0.100000)"
fill="#000000" stroke="none">
<path d="M674 1241 c-56 -35 -51 -41 30 -41 l76 0 0 -35 0 -35 -79 0 c-67 0
-80 3 -84 18 -4 13 -5 13 -6 -4 -1 -18 6 -22 44 -27 26 -2 49 -8 53 -11 3 -4
6 -36 7 -71 l0 -65 30 0 c79 0 145 69 145 152 0 43 -5 54 -38 90 -35 37 -45
42 -93 45 -41 3 -61 0 -85 -16z m106 -146 c0 -8 -4 -15 -10 -15 -5 0 -10 7
-10 15 0 8 5 15 10 15 6 0 10 -7 10 -15z"/>
<path d="M1281 1238 c-19 -12 -41 -34 -50 -47 -16 -24 -15 -24 9 -17 14 4 66
10 115 13 103 6 106 4 130 -68 l15 -44 -4 53 c-3 46 -8 59 -39 90 -30 30 -44
36 -89 40 -44 3 -59 0 -87 -20z"/>
<path d="M1212 1106 c13 -111 133 -171 223 -112 22 15 23 19 12 44 -18 41 -32
52 -70 52 -44 0 -67 8 -67 25 0 14 -50 35 -83 35 -17 0 -19 -5 -15 -44z"/>
<path d="M606 1083 c9 -36 32 -71 54 -83 15 -8 18 -3 23 43 2 29 4 52 3 53 0
1 -20 4 -44 8 -42 6 -42 6 -36 -21z"/>
<path d="M1440 940 c0 -5 5 -10 10 -10 6 0 10 5 10 10 0 6 -4 10 -10 10 -5 0
-10 -4 -10 -10z"/>
<path d="M100 866 c0 -44 4 -76 10 -76 6 0 10 28 11 63 l0 62 23 -60 c13 -32
28 -61 34 -63 6 -2 21 25 34 60 l23 63 3 -62 c4 -89 22 -78 22 13 0 65 -2 75
-16 72 -10 -2 -26 -26 -37 -55 -11 -29 -23 -53 -27 -53 -4 0 -16 24 -27 53
-11 29 -27 53 -37 55 -14 3 -16 -7 -16 -72z"/>
<path d="M305 897 c14 -24 25 -58 25 -75 0 -18 5 -32 10 -32 6 0 10 14 10 31
0 17 12 50 26 75 14 24 21 44 15 44 -6 0 -19 -17 -30 -37 l-19 -38 -22 38
c-12 20 -26 37 -31 37 -6 0 2 -20 16 -43z"/>
<path d="M420 865 c0 -43 4 -75 10 -75 6 0 10 14 10 30 0 26 4 30 28 30 35 0
52 16 52 51 0 30 -15 39 -66 39 l-34 0 0 -75z m64 59 c24 -9 20 -51 -6 -57
-30 -8 -38 -1 -38 34 0 29 12 35 44 23z"/>
<path d="M610 865 c0 -43 4 -75 10 -75 6 0 10 14 10 30 0 22 5 30 18 30 10 0
26 -13 35 -30 10 -16 23 -30 28 -30 6 0 1 15 -10 34 -18 29 -19 35 -6 40 20 7
20 62 -1 70 -9 3 -31 6 -50 6 l-34 0 0 -75z m75 35 c0 -20 -6 -26 -27 -28 -25
-3 -28 0 -28 28 0 28 3 31 28 28 21 -2 27 -8 27 -28z"/>
<path d="M762 894 c-36 -25 -24 -99 18 -104 29 -4 50 0 50 9 0 5 -9 7 -20 4
-20 -5 -50 12 -50 28 0 5 18 9 40 9 33 0 40 3 40 19 0 17 -33 51 -50 51 -3 0
-16 -7 -28 -16z m56 -21 c2 -9 -7 -13 -27 -13 -30 0 -39 9 -24 24 11 10 46 3
51 -11z"/>
<path d="M893 903 c-22 -4 -23 -9 -23 -89 0 -54 4 -83 10 -79 6 3 10 18 10 32
0 20 4 24 19 20 11 -3 29 2 40 10 26 17 28 74 5 97 -16 16 -21 17 -61 9z m52
-58 c0 -36 -2 -40 -25 -40 -20 0 -26 6 -28 28 -5 42 5 59 30 55 20 -3 23 -9
23 -43z"/>
<path d="M1020 900 c-11 -7 -7 -10 18 -10 19 0 32 -5 32 -13 0 -7 -15 -17 -32
-22 -26 -8 -34 -16 -36 -37 -3 -27 11 -36 43 -28 6 2 18 2 28 2 26 -1 25 93
-2 108 -24 12 -32 12 -51 0z m48 -77 c-4 -20 -35 -30 -50 -15 -15 15 0 32 28
32 19 0 25 -5 22 -17z"/>
<path d="M1160 901 c-8 -6 -18 -7 -22 -5 -4 3 -7 -21 -7 -53 1 -54 2 -55 8
-18 8 48 17 65 37 65 8 0 14 5 14 10 0 12 -10 13 -30 1z"/>
<path d="M1235 900 c-17 -7 -15 -9 13 -9 42 -1 42 -25 0 -37 -38 -11 -49 -41
-23 -60 11 -9 25 -10 40 -4 13 5 26 6 29 3 3 -4 6 17 6 45 0 40 -4 53 -19 62
-22 11 -20 11 -46 0z m43 -77 c-2 -10 -13 -19 -26 -21 -17 -3 -22 2 -22 17 0
16 6 21 26 21 19 0 25 -5 22 -17z"/>
<path d="M1350 890 c-33 -33 -20 -95 20 -100 30 -4 44 2 21 9 -32 9 -45 32
-37 64 5 20 13 27 32 27 14 0 23 4 19 10 -10 16 -33 12 -55 -10z"/>
<path d="M1510 890 c-39 -39 -17 -102 35 -102 52 0 74 63 35 102 -11 11 -27
20 -35 20 -8 0 -24 -9 -35 -20z m66 -27 c8 -31 -6 -58 -31 -58 -25 0 -39 27
-31 58 5 20 13 27 31 27 18 0 26 -7 31 -27z"/>
<path d="M1653 903 c-21 -4 -23 -10 -23 -59 0 -66 18 -72 22 -6 3 43 5 47 28
47 23 0 25 -4 28 -47 4 -63 22 -62 22 2 0 38 -4 52 -19 60 -11 5 -23 9 -28 9
-4 -1 -18 -4 -30 -6z"/>
<path d="M1782 894 c-32 -22 -28 -83 6 -100 25 -12 62 -8 62 8 0 5 -5 6 -11 3
-16 -11 -59 4 -59 20 0 11 11 15 40 15 46 0 53 17 20 50 -24 24 -29 24 -58 4z
m56 -21 c2 -9 -7 -13 -27 -13 -30 0 -39 9 -24 24 11 10 46 3 51 -11z"/>
<path d="M1898 899 c-27 -16 -21 -35 18 -58 40 -24 36 -45 -7 -39 -31 5 -40
-7 -11 -14 57 -15 87 44 32 65 -40 15 -39 37 3 37 24 0 28 3 17 10 -19 12 -30
12 -52 -1z"/>
<path d="M1440 845 c0 -30 5 -55 10 -55 6 0 10 25 10 55 0 30 -4 55 -10 55 -5
0 -10 -25 -10 -55z"/>
</g>
</svg>
