<?xml version="1.0" encoding="UTF-8"?>
<svg viewBox="0 0 95.126381 162.34077" xmlns="http://www.w3.org/2000/svg" xmlns:xlink="http://www.w3.org/1999/xlink">
 <defs>
  <clipPath id="k">
   <path d="m428.5 319.86-4.7786-5.8779 0.03289-6.002 1.5146-0.89474 0.18844-60.289c-13.249 1.7492-23.384 7.802-30.042 19.004l-32.049 53.817-14.655 19.779-3.6124 8.2237 35.266 0.11024" fill-rule="evenodd"/>
  </clipPath>
  <clipPath id="l">
   <path d="m508.97 308.78c-1.1241 10.196-13.131 13.354-21.875 13.25-33.49-0.12602-66.979-0.24191-100.47-0.34375 6.3066 36.532 13.156 75.737-0.93882 111.31-10.131 25.467-23.96 49.211-35.289 74.156-35.929 74.095-72.706 147.71-107.93 222.16-6.5517 18.902 9.1219 41.07 28.938 41.531 13.692 1.0721 27.789-7.8158 32.469-20.531-7.4662 15.763-28.773 23.158-44.125 14.344-16.331-8.4456-22.339-31.716-11.281-46.625 10-15.174 33.618-18.8 47.219-6.1562 9.4341 7.9749 13.84 21.593 10.062 33.594 43.163-101.38 85.52-203.16 129.2-304.29 18.058-35.525 54.237-55.708 84.705-79.244 9.5736-6.7631 19.926-14.873 21.171-27.514 3.4735-22.416-3.1225-45.594-14.165-65.144-4.3765-7.2275-10.063-13.9-17.469-18.125l-0.21875 57.625zm-77.531 30.844c7.1967 0.8733 16.191-1.9806 22.031 3.4062 6.3093 8.0332 1.6989 18.992 3.024 28.25-0.20733 10.473 1.1115 21.308-1.0552 31.563-4.3604 8.7783-15.806 6.0557-23.688 6.0312-9.1332-0.40765-19.129 1.9646-27.75-1.6562-8.1571-5.9509-4.0294-17.51-4.8125-25.969 0.41538-11.79-1.4914-24.045 1.1562-35.562 3.6484-7.6912 13.101-5.8373 19.969-5.888 3.7088-0.03099 7.4164-0.13611 11.125-0.17451z" fill-rule="evenodd"/>
  </clipPath>
  <clipPath id="n">
   <path d="m87.043 306.39c-13.918 28.342-102.03 214.15-105.06 220.21-15.152 30.305 28.284 57.579 47.477 14.142s81.007-191.03 91.924-219.2c11.595-29.922-20.456-43.437-34.345-15.152z" fill-rule="evenodd"/>
  </clipPath>
  <clipPath id="m">
   <path d="m513.18 245.01-0.19936 63.781c-0.6768 6.556-10.054 9.465-19.685 9.2198l-103.37-0.3231c5.491 37.162 17.325 80.163-4.8929 125.7l-134.74 276.14c-2.9855 6.1188-5.2247 11.88-5.2461 18.734-0.06291 20.128 16.195 36.52 36.323 36.582 14.781 0.0462 27.903-8.5785 33.317-21.365l128.23-302.82c19.898-46.99 66.271-65.531 100.96-96.935 22.953-20.78 3.3775-98.396-30.692-108.72zm-59.621 98.752c3.8887 0.00738 7.0136 3.1645 7.0092 7.0532l-0.05384 47.219c-0.00438 3.8887-3.1333 7.0167-7.022 7.0093l-35.406-0.04817c-3.8887-0.00735-7.0136-3.1645-7.0092-7.0532l0.05384-47.219c0.00436-3.8887 3.1333-7.0167 7.022-7.0093l35.406 0.04816zm-170.55 364.44c15.501 0.04846 28.023 12.649 27.975 28.15s-12.649 28.054-28.15 28.006-28.054-12.68-28.006-28.181 12.68-28.023 28.181-27.975z" fill-rule="evenodd"/>
  </clipPath>
  <clipPath id="j">
   <path d="m407.31 251.56c-13.169 2.4699-22.128 13.459-27.646 24.914-13.576 22.735-26.248 46.191-42.791 66.867 6.3262 1.3508 13.856-0.71745 20.562 0.53125 10.965 1.439 18.917-7.6764 28.211-11.896l22.571-13.073c-3.7752-4.4122-2.9351-10.416-1.25-15.344 0.84937-17.263 0.25708-34.985 0.34375-52z" fill-rule="evenodd"/>
  </clipPath>
  <filter id="f">
   <feGaussianBlur stdDeviation="1.88334"/>
  </filter>
  <filter id="g">
   <feGaussianBlur stdDeviation="2.06142"/>
  </filter>
  <filter id="h">
   <feGaussianBlur stdDeviation="1.70201"/>
  </filter>
  <filter id="i">
   <feGaussianBlur stdDeviation="3.45328"/>
  </filter>
  <filter id="e">
   <feGaussianBlur stdDeviation="1.25857"/>
  </filter>
  <linearGradient id="a">
   <stop offset="0"/>
   <stop stop-opacity="0" offset="1"/>
  </linearGradient>
  <linearGradient id="c" x1="412.78" x2="414.93" y1="772.1" y2="244.01" gradientUnits="userSpaceOnUse">
   <stop stop-color="#b5b5b5" offset="0"/>
   <stop stop-color="#dadada" offset=".9661"/>
   <stop stop-color="#fff" offset="1"/>
  </linearGradient>
  <linearGradient id="d" x1="476.34" x2="475.87" y1="235.64" y2="384.81" gradientUnits="userSpaceOnUse" xlink:href="#a"/>
  <linearGradient id="b" x1="444.47" x2="444.62" y1="420.41" y2="373.41" gradientUnits="userSpaceOnUse" xlink:href="#a"/>
 </defs>
 <g transform="matrix(-.30403 0 0 .30403 172.04 -73.862)">
  <path d="m455.44 347.88 1.9187 7.2512 2.3556 0.00736 2.031-7.4863" fill="#616161" fill-rule="evenodd" stroke="#000" stroke-width="2"/>
  <path d="m441.67 347.84 1.9187 7.2512 2.3556 0.00736 2.031-7.4863" fill="#616161" fill-rule="evenodd" stroke="#000" stroke-width="2"/>
  <path d="m427.89 347.8 1.9187 7.2512 2.3556 0.00737 2.031-7.4863" fill="#777" fill-rule="evenodd" stroke="#000" stroke-width="2"/>
  <path d="m407.97 384.73c-4.0355-4.5655-4.3109-11.29-0.83883-16.15" fill="#616161" fill-rule="evenodd" stroke="#000" stroke-width="2"/>
  <path d="m423.37 347.79 45.5 0.14221-0.07081-0.10457c4.8396-2.3838-0.09378-4.0268-3.8711-5.7574-12.875-0.06997-25.653 0.02308-37.834 1.1192-3.1821 0.71773-7.6737 2.5519-3.724 4.6006z" fill="#787878" fill-rule="evenodd" stroke="#000" stroke-width="2"/>
  <path d="m421.1 352.4 1.0076-2.4344 4.2517-0.03481 2.5994 7.6813 5.0004-0.10937 2.0857-7.431 4.4588-0.06785 2.4551 7.652 4.6875 0.01465 2.1484-7.4933 4.3494-0.03312 2.3157 7.4271 5.4398-0.05287 2.0852-7.4053 4.1075-0.11219 2.5534 7.9292-0.23967 36.687-2.4682 6.13-4.7355 0.16687-1.557-5.948-5.3971-0.105-2.2306 5.9748-4.5701 0.05703-1.7931-6.1928-5.752 0.09575-1.7467 6.0622-4.7684 0.00995-1.6085-6.1538-5.7392 0.08608-1.8414 5.985-4.1861-0.19436-1.2304-6.2539 0.31857-41.937z" fill="#b4b4b4" fill-rule="evenodd"/>
  <path d="m421.1 352.4 1.0076-2.4344 4.2517-0.03481 2.5994 7.6813 5.0004-0.10937 2.0857-7.431 4.4588-0.06785 2.4551 7.652 4.6875 0.01465 2.1484-7.4933 4.3494-0.03312 2.3157 7.4271 5.4398-0.05287 2.0852-7.4053 4.1075-0.11219 2.5534 7.9292-0.23967 36.687-2.4682 6.13-4.7355 0.16687-1.557-5.948-5.3971-0.105-2.2306 5.9748-4.5701 0.05703-1.7931-6.1928-5.752 0.09575-1.7467 6.0622-4.7684 0.00995-1.6085-6.1538-5.7392 0.08608-1.8414 5.985-4.1861-0.19436-1.2304-6.2539 0.31857-41.937z" fill="url(#b)" fill-rule="evenodd"/>
  <path d="m400.34 347.71 1.9187 7.2512 2.3556 0.00736 0.60704-2.2375 1.395-5.1418-6.2763 0.1207z" fill="#616161" fill-rule="evenodd" stroke="#000" stroke-width="2"/>
  <path d="m386.56 347.73 1.9187 7.2512 2.3556 0.00737 2.031-7.4863" fill="#616161" fill-rule="evenodd" stroke="#000" stroke-width="2"/>
  <path d="m372.79 347.69 1.9187 7.2512 2.3556 0.00737 2.031-7.4863" fill="#616161" fill-rule="evenodd" stroke="#000" stroke-width="2"/>
  <path d="m452.5 319.86-4.7786-5.8779 0.03289-6.002 1.5146-0.89474 0.18844-60.289c-13.249 1.7492-23.384 7.802-30.042 19.004l-32.049 53.817-14.655 19.779-3.6124 8.2237 35.266 0.11024" fill="#c8c8c8" fill-rule="evenodd" stroke="#000" stroke-width="4.1272"/>
  <path transform="translate(38)" d="m407.31 251.56c-13.169 2.4699-22.128 13.459-27.646 24.914-13.576 22.735-26.248 46.191-42.791 66.867 6.3262 1.3508 13.856-0.71745 20.562 0.53125 10.965 1.439 18.917-7.6764 28.211-11.896l22.571-13.073c-3.7752-4.4122-2.9351-10.416-1.25-15.344 0.84937-17.263 0.25708-34.985 0.34375-52z" clip-path="url(#j)" fill="none" filter="url(#e)" stroke="#fff" stroke-width="9.4459"/>
  <path d="m523.18 245.01-0.19936 63.781c-0.6768 6.556-10.054 9.465-19.685 9.2198l-103.37-0.3231c5.491 37.162 17.325 80.163-4.8929 125.7l-134.74 276.14c-2.9855 6.1188-5.2247 11.88-5.2461 18.734-0.06291 20.128 16.195 36.52 36.323 36.582 14.781 0.0462 27.903-8.5785 33.317-21.365l128.23-302.82c19.898-46.99 66.271-65.531 100.96-96.935 22.953-20.78 3.3775-98.396-30.692-108.72zm-59.621 98.752c3.8887 0.00738 7.0136 3.1645 7.0092 7.0532l-0.05384 47.219c-0.00438 3.8887-3.1333 7.0167-7.022 7.0093l-35.406-0.04817c-3.8887-0.00735-7.0136-3.1645-7.0092-7.0532l0.05384-47.219c0.00436-3.8887 3.1333-7.0167 7.022-7.0093l35.406 0.04816zm-170.55 364.44c15.501 0.04846 28.023 12.649 27.975 28.15s-12.649 28.054-28.15 28.006-28.054-12.68-28.006-28.181 12.68-28.023 28.181-27.975z" fill="url(#c)" fill-rule="evenodd" stroke="#000" stroke-width="4.1272"/>
  <path d="m400.07 319.73-12.551-0.03923" fill="none" stroke="#000"/>
  <path d="m373.01 339 29.698 0.09283" fill="none" stroke="#000"/>
  <g transform="matrix(.99999 .0031257 -.0031257 .99999 33.399 236.64)" fill="none" stroke="#000">
   <path d="m434.92 162.91-13.619-50.828h-4.716l-2.0586 7.6829"/>
   <path d="m416.58 112.09 13.619 50.828h5.0285l1.6409-6.1238"/>
  </g>
  <path d="m447.81 307.42-20.5 11.75" fill="none" stroke="#000"/>
  <path d="m456.45 357.74 9.2611 0.02895m-36.919-0.11539 9.1979 0.02874m4.9311 0.01541 8.6745 0.02712m-29.983-0.09372 2.2579 0.00706m42.364 37.167 3.8451 0.01201m-31.547-0.0986 9.1382 0.02857m-23.154-0.07239 9.2503 0.02892m18.875 0.059 8.7712 0.02741" fill="#b4b4b4" fill-rule="evenodd" stroke="#000" stroke-width="2"/>
  <g transform="matrix(.99999 .0031257 -.0031257 .99999 19.649 236.59)" fill="none" stroke="#000">
   <path d="m434.92 162.91-13.619-50.828h-4.716l-2.0586 7.6829"/>
   <path d="m416.58 112.09 13.619 50.828h5.0285l1.6409-6.1238"/>
  </g>
  <g transform="matrix(.99999 .0031257 -.0031257 .99999 5.6495 236.55)" fill="none" stroke="#000">
   <path d="m434.92 162.91-13.619-50.828h-4.716l-0.64755 2.4167"/>
   <path d="m416.58 112.09 13.619 50.828h5.0285l1.6409-6.1238"/>
  </g>
  <g transform="matrix(.99999 .0031257 -.0031257 .99999 -8.2254 236.51)" fill="none" stroke="#000">
   <path d="m434.92 162.91-5.1604-19.259"/>
   <path d="m429.78 161.35 0.41835 1.5613h5.0285l1.6409-6.1238"/>
  </g>
  <g transform="matrix(.99999 .0031257 -.0031257 .99999 47.399 236.68)" fill="none" stroke="#000">
   <path d="m423.54 120.46-2.2441-8.375h-4.716l-2.0586 7.6829"/>
   <path d="m416.58 112.09 7.0051 26.144"/>
  </g>
  <path d="m405.42 350.67c3.9512 17.512 3.4043 35.011 2.0859 52.507l13.5 0.04219c0.09635-17.5-0.71659-30.466-0.18223-50.025l-2.357-2.483-13.047-0.04078zm64.836 52.703 21.25 0.06643c19.26-14.986 47.711-34.491 63.667-49.758 4.2502-4.0667 5.2443-9.8366 6.7738-13.394-3.0966 5.6798-10.168 10.641-16.527 10.82l-72.198-0.23308-2.5835 2.3306-0.38075 50.168z" fill="url(#d)" fill-rule="evenodd"/>
  <path d="m387.33 319.68 12.596 0.05147 3.1322 19.369-30.01-0.11612 14.282-19.304z" fill-opacity=".27632" fill-rule="evenodd"/>
  <path d="m447.8 307.67-21.194 12.121 25.844 0.08078-4.7318-5.8273 0.08243-6.3748z" fill-opacity=".27632" fill-rule="evenodd"/>
  <path d="m372.76 341 30.312 0.09475" fill="none" stroke="#000"/>
  <path transform="matrix(1 .0018202 -.0018202 1 0 0)" d="m432.47 336.42h28.045a13.347 11.35 0 0 1 13.347 11.35v53.111a13.347 11.35 0 0 1 -13.347 11.35h-28.045a13.347 11.35 0 0 1 -13.347 -11.35v-53.111a13.347 11.35 0 0 1 13.347 -11.35" fill="none" stroke="#000"/>
  <g transform="matrix(-1 0 0 .50126 563.11 193.04)" fill="none" stroke="#000" stroke-width="1.4124">
   <path d="m155.03 254.89v24.476"/>
   <path d="m151.38 254.85v20.782"/>
   <path d="m147.73 254.85v20.782"/>
   <path d="m144.08 254.85v20.782"/>
   <path d="m140.43 254.85v20.782"/>
   <path d="m136.78 254.93v27.899"/>
   <path d="m133.13 254.85v20.782"/>
   <path d="m129.48 254.85v20.782"/>
   <path d="m125.83 254.85v20.782"/>
   <path d="m122.18 254.85v20.782"/>
   <path d="m118.53 254.89v24.476"/>
   <path d="m114.88 254.85v20.782"/>
   <path d="m111.23 254.85v20.782"/>
   <path d="m107.58 254.85v20.782"/>
   <path d="m103.93 254.85v20.782"/>
   <path d="m100.28 254.93v28.448"/>
   <path d="m96.633 254.85v20.782"/>
   <path d="m92.983 254.85v20.782"/>
   <path d="m89.333 254.85v20.782"/>
   <path d="m85.683 254.85v20.782"/>
   <path d="m82.033 254.89v24.476"/>
   <path d="m78.383 254.85v20.782"/>
   <path d="m74.733 254.59v21.039"/>
   <path d="m71.083 254.44v21.195"/>
   <path d="m67.433 254.8v20.831"/>
   <path d="m63.783 254.38v28.999"/>
  </g>
  <path transform="matrix(.20879 .12529 -.12529 .20879 384.85 221.91)" d="m346.48 252.98-29.658-16.464 29.088-17.453 0.57056 33.917z" fill="none" stroke="#000" stroke-linecap="square" stroke-width="2.0534"/>
  <path transform="matrix(.20879 -.12529 -.12529 -.20879 458.75 432.85)" d="m346.48 252.98-29.658-16.464 29.088-17.453 0.57056 33.917z" fill="none" stroke="#000" stroke-linecap="square" stroke-width="2.0534"/>
  <path d="m403.17 446.38c-13.918 28.342-102.03 214.15-105.06 220.21-15.152 30.305 28.284 57.579 47.477 14.142s81.007-191.03 91.924-219.2c11.595-29.922-20.456-43.437-34.345-15.152z" fill="none" stroke="#000" stroke-width="3.1274"/>
  <path transform="translate(10)" d="m513.18 245.01-0.19936 63.781c-0.6768 6.556-10.054 9.465-19.685 9.2198l-103.37-0.3231c5.491 37.162 17.325 80.163-4.8929 125.7l-134.74 276.14c-2.9855 6.1188-5.2247 11.88-5.2461 18.734-0.06291 20.128 16.195 36.52 36.323 36.582 14.781 0.0462 27.903-8.5785 33.317-21.365l128.23-302.82c19.898-46.99 66.271-65.531 100.96-96.935 22.953-20.78 3.3775-98.396-30.692-108.72zm-59.621 98.752c3.8887 0.00738 7.0136 3.1645 7.0092 7.0532l-0.05384 47.219c-0.00438 3.8887-3.1333 7.0167-7.022 7.0093l-35.406-0.04817c-3.8887-0.00735-7.0136-3.1645-7.0092-7.0532l0.05384-47.219c0.00436-3.8887 3.1333-7.0167 7.022-7.0093l35.406 0.04816zm-170.55 364.44c15.501 0.04846 28.023 12.649 27.975 28.15s-12.649 28.054-28.15 28.006-28.054-12.68-28.006-28.181 12.68-28.023 28.181-27.975z" clip-path="url(#m)" fill="none" filter="url(#i)" stroke="#000" stroke-width="2"/>
  <path transform="translate(316.64 140.57)" d="m106.37 291.57c11.762-0.31605 21.559 11.987 14.312 30.688-10.917 28.173-72.745 175.78-91.938 219.22-6.5452 14.813-15.914 21.387-24.812 22.438 7.7725-2.229 15.575-8.907 21.25-21.75 19.193-43.437 80.989-191.01 91.906-219.19 7.4565-19.242-3.1377-31.676-15.344-30.594 1.5498-0.4736 3.1079-0.77173 4.625-0.8125" clip-path="url(#n)" fill-rule="evenodd" filter="url(#h)" opacity=".43169" stroke="#000"/>
  <path transform="translate(18)" d="m508.97 308.78c-1.1241 10.196-13.131 13.354-21.875 13.25-33.49-0.12602-66.979-0.24191-100.47-0.34375 6.3066 36.532 13.156 75.737-0.93882 111.31-10.131 25.467-23.96 49.211-35.289 74.156-35.929 74.095-72.706 147.71-107.93 222.16-6.5517 18.902 9.1219 41.07 28.938 41.531 13.692 1.0721 27.789-7.8158 32.469-20.531-7.4662 15.763-28.773 23.158-44.125 14.344-16.331-8.4456-22.339-31.716-11.281-46.625 10-15.174 33.618-18.8 47.219-6.1562 9.4341 7.9749 13.84 21.593 10.062 33.594 43.163-101.38 85.52-203.16 129.2-304.29 18.058-35.525 54.237-55.708 84.705-79.244 9.5736-6.7631 19.926-14.873 21.171-27.514 3.4735-22.416-3.1225-45.594-14.165-65.144-4.3765-7.2275-10.063-13.9-17.469-18.125l-0.21875 57.625zm-77.531 30.844c7.1967 0.8733 16.191-1.9806 22.031 3.4062 6.3093 8.0332 1.6989 18.992 3.024 28.25-0.20733 10.473 1.1115 21.308-1.0552 31.563-4.3604 8.7783-15.806 6.0557-23.688 6.0312-9.1332-0.40765-19.129 1.9646-27.75-1.6562-8.1571-5.9509-4.0294-17.51-4.8125-25.969 0.41538-11.79-1.4914-24.045 1.1562-35.562 3.6484-7.6912 13.101-5.8373 19.969-5.888 3.7088-0.03099 7.4164-0.13611 11.125-0.17451z" clip-path="url(#l)" fill="none" filter="url(#g)" stroke="#fefefe" stroke-width="9.4459"/>
  <path transform="translate(24)" d="m428.5 319.86-4.7786-5.8779 0.03289-6.002 1.5146-0.89474 0.18844-60.289c-13.249 1.7492-23.384 7.802-30.042 19.004l-32.049 53.817-14.655 19.779-3.6124 8.2237 35.266 0.11024" clip-path="url(#k)" fill="none" filter="url(#f)" stroke="#000" stroke-width="1.9998"/>
 </g>
</svg>
