<?xml version="1.0" encoding="UTF-8"?>
<svg version="1.1" viewBox="0 0 1920 1920" xmlns="http://www.w3.org/2000/svg">
 <g transform="translate(0 867.64)">
  <g transform="translate(.50049 .22868)" fill-rule="evenodd">
   <path d="m1010.4-868.57-78.098 49.898-54.4 110.27a805.53 805.53 0 0 0 -72.326 10.534l-39.987-100.6 17.094-30.365-7.4084-21.281-76.657 69.08-24.941 120.35a805.53 805.53 0 0 0 -68.904 30.138l-64.704-86.725 8.4643-33.699-12.792-18.554-55.78 86.527 7.2504 123.79a805.53 805.53 0 0 0 -57.737 46.078l-86.174-66.901-0.70053-34.664-17.274-14.472-31.213 97.997 39.739 116.92a805.53 805.53 0 0 0 -43.396 58.418l-99.705-42.979-9.4188-33.584-20.286-9.809-5.2133 103.14 68.313 103.87a805.53 805.53 0 0 0 -26.858 69.182l-108.16-15.72-17.885-29.828-22.163-4.0717 21.904 100.67 93.596 83.145a805.53 805.53 0 0 0 -8.0341 72.601l-109.05 13.742-25.048-24.019-22.449 1.9837 47.393 91.471 112.24 55.106a805.53 805.53 0 0 0 10.763 70.882l-102.19 41.174-30.438-17.038-21.249 7.4991 69.441 76.614 122.37 24.601a805.53 805.53 0 0 0 29.983 67.302l-87.73 66.465-33.721-8.2183-18.455 12.932 86.736 55.114 125.83-8.1007a805.53 805.53 0 0 0 45.201 56.018l-67.8 87.688-34.619 0.8983-14.432 17.305 97.839 30.537 119.31-40.444a805.53 805.53 0 0 0 58.052 42.68l-42.586 102.08-33.205 9.8224-9.4399 20.463 102.5 4.2268 104.49-70.125a805.53 805.53 0 0 0 67.422 25.738l-14.065 110.28-29.478 18.158-3.6787 22.233 100.25-22.684 82.153-95.633a805.53 805.53 0 0 0 71.064 7.6194l13.784 110.1-24.134 25.139 1.9517 22.449 91.716-47.738 55.523-113.41a805.53 805.53 0 0 0 70.123 -10.83l41.444 102.84-17.019 30.52 11.892 20.345 72.138-68.864 24.577-123.07a805.53 805.53 0 0 0 66.99 -29.978l66.556 87.819-8.1807 33.793 12.929 18.455 54.956-87.022-8.7422-125.61a805.53 805.53 0 0 0 56.49 -45.743l87.466 67.604 0.9517 34.68 17.306 14.431 30.312-98.069-40.835-118.45a805.53 805.53 0 0 0 43.187 -59.02l101.45 42.305 9.8891 33.25 20.463 9.4374 3.946-102.67-69.711-103.63a805.53 805.53 0 0 0 25.946 -68.353l109.05 13.889 18.236 29.502 22.233 3.6787-23.005-100.33-94.706-81.172a805.53 805.53 0 0 0 7.5177 -71.625l108.69-14.276 25.222 24.136 22.452-1.9517-48.08-91.722-112.01-54.686a805.53 805.53 0 0 0 -11.293 -71.486l101.32-40.843 29.81 13.156 21.056-8.0285-70.104-75.149-120.98-22.249a805.53 805.53 0 0 0 -29.815 -66.615l85.952-65.936 33.865 8.1434 18.455-12.932-87.303-54.798-123.68 8.7663a805.53 805.53 0 0 0 -46.604 -57.135l66.024-86.452 34.739-1.0052 14.432-17.308-98.299-30.087-116.77 40.42a805.53 805.53 0 0 0 -60.453 -43.741l41.666-99.972 33.293-9.9587 9.4374-20.463-102.83-3.6653-101.58 69.115a805.53 805.53 0 0 0 -70.417 -26.419l13.656-107.38 29.526-18.316 3.6787-22.233-100.42 23.329-80.242 93.829a805.53 805.53 0 0 0 -59.162 -6.51l-20.709-109.17 18.87-26.564-3.644-22.238zm-50.89 216a744.69 744.69 0 0 1 744.69 744.69 744.69 744.69 0 0 1 -744.69 744.69 744.69 744.69 0 0 1 -744.69 -744.69 744.69 744.69 0 0 1 744.69 -744.69zm0 58.664a686.02 686.02 0 0 0 -686.02 686.02 686.02 686.02 0 0 0 686.02 686.02 686.02 686.02 0 0 0 686.02 -686.02 686.02 686.02 0 0 0 -686.02 -686.02zm0 66.484a619.54 619.54 0 0 1 619.54 619.54 619.54 619.54 0 0 1 -619.54 619.54 619.54 619.54 0 0 1 -619.54 -619.54 619.54 619.54 0 0 1 619.54 -619.54zm0 418.47a201.07 201.07 0 0 0 -201.07 201.07 201.07 201.07 0 0 0 201.07 201.07 201.07 201.07 0 0 0 201.07 -201.07 201.07 201.07 0 0 0 -201.07 -201.07zm0 15.838a185.23 185.23 0 0 1 185.23 185.23 185.23 185.23 0 0 1 -185.23 185.23 185.23 185.23 0 0 1 -185.23 -185.23 185.23 185.23 0 0 1 185.23 -185.23zm0 17.952a167.28 167.28 0 0 0 -167.28 167.28 167.28 167.28 0 0 0 167.28 167.28 167.28 167.28 0 0 0 167.28 -167.28 167.28 167.28 0 0 0 -167.28 -167.28z"/>
   <path d="m989.05-199.81a30.822 30.822 0 0 1 -30.821 30.822 30.822 30.822 0 0 1 -30.822 -30.822 30.822 30.822 0 0 1 30.822 -30.822 30.822 30.822 0 0 1 30.821 30.822z"/>
   <path d="m991.59 384.07a30.822 30.822 0 0 0 -30.822 -30.822 30.822 30.822 0 0 0 -30.822 30.822 30.822 30.822 0 0 0 30.822 30.822 30.822 30.822 0 0 0 30.822 -30.822z"/>
  </g>
 </g>
</svg>
