<svg height="512pt" viewBox="-38 0 512 512.0005" width="512pt" xmlns="http://www.w3.org/2000/svg"><path d="m355.902344 23.5v-16.070312c0-9.898438-14.976563-9.914063-14.976563 0v16.070312c0 9.898438 14.976563 9.914062 14.976563 0zm0 0"/><path d="m340.925781 142.953125v16.070313c0 9.898437 14.976563 9.910156 14.976563 0v-16.070313c0-9.902344-14.976563-9.914063-14.976563 0zm0 0"/><path d="m429.128906 75.738281h-16.074218c-9.898438 0-9.910157 14.976563 0 14.976563h16.074218c9.898438 0 9.910156-14.976563 0-14.976563zm0 0"/><path d="m393.277344 48.953125 14.027344-14.03125c7-6.996094-3.578126-17.597656-10.589844-10.585937l-14.027344 14.027343c-7 7 3.578125 17.597657 10.589844 10.589844zm0 0"/><path d="m300.886719 120.164062-11.363281 11.363282c-7 7 3.578124 17.597656 10.585937 10.589844l11.367187-11.363282c7-7-3.582031-17.597656-10.589843-10.589844zm0 0"/><path d="m306.179688 48.480469c6.613281 0 10.027343-8.050781 5.296874-12.78125l-11.367187-11.363281c-6.996094-7-17.597656 3.578124-10.585937 10.585937 10.375 9.546875 11.511718 13.558594 16.65625 13.558594zm0 0"/><path d="m393.277344 117.5c-7-7-17.601563 3.578125-10.589844 10.589844 12.992188 12.105468 14.070312 16.21875 19.324219 16.21875 6.609375 0 10.023437-8.050782 5.292969-12.78125zm0 0"/><path d="m258.738281 54.421875-88.40625-13.097656c-6.53125-.964844-12.660156 3.210937-14.222656 9.535156h-.21875c-64.660156 0-117.265625 52.605469-117.265625 117.265625v68.851562h-22.957031c-8.640625 0-15.667969 7.03125-15.667969 15.671876v24.917968c0 8.316406 6.507812 15.136719 14.699219 15.640625v136.488281c0 9.898438 14.972656 9.914063 14.972656 0v-136.457031h39.941406c9.898438 0 9.914063-14.976562 0-14.976562h-53.945312c-.382813 0-.695313-.308594-.695313-.691407v-24.921874c0-.382813.3125-.695313.695313-.695313h104.773437c.382813 0 .695313.3125.695313.695313-.300781 24.632812.644531 25.613281-.695313 25.613281h-20.878906c-9.898438 0-9.914062 14.976562 0 14.976562h6.875v193.765625c0 5.527344-4.496094 10.023438-10.019531 10.023438h-56.722657c-5.527343 0-10.023437-4.496094-10.023437-10.023438v-27.277344c0-9.898437-14.972656-9.910156-14.972656 0v27.277344c0 13.78125 11.214843 24.996094 24.996093 24.996094h56.71875c13.785157 0 24.996094-11.214844 24.996094-24.996094v-88.804687l27.996094-15.683594c6.222656-3.484375 10.089844-10.085937 10.089844-17.21875v-32.148437c0-10.882813-8.855469-19.738282-19.738282-19.738282h-18.347656v-20.203125c8.191406-.503906 14.699219-7.324219 14.699219-15.636719v-24.921874c0-8.640626-7.027344-15.667969-15.667969-15.667969h-22.957031v-68.855469c0-32.203125 26.199219-58.402344 58.40625-58.402344h.28125c1.566406 6.34375 7.71875 10.511719 14.25 9.527344l88.375-13.300781c6.183594-.933594 10.839844-6.347657 10.832031-12.601563l-.03125-26.351562c-.003906-6.253906-4.675781-11.660156-10.859375-12.574219zm-118.980469 273.964844c2.628907 0 4.765626 2.136719 4.765626 4.761719v32.148437c0 1.722656-.933594 3.316406-2.4375 4.15625l-20.675782 11.582031v-52.652344h18.347656zm-57.246093-160.261719v68.851562h-28.914063v-68.851562c0-56.359375 45.8125-102.21875 102.15625-102.292969l.03125 28.917969c-40.410156.054688-73.273437 32.949219-73.273437 73.375zm88.257812-64.070312-.054687-47.535157 83.914062 12.429688.023438 22.476562zm0 0"/><path d="m388.546875 72.230469c-10.050781-6.121094-35.667969-20.355469-56.351563-20.355469-17.578124 0-30.835937 12.398438-30.835937 28.839844 0 16.445312 13.257813 28.84375 30.835937 28.84375 20.683594 0 46.300782-14.234375 56.351563-20.355469 6.367187-3.875 6.351563-13.105469 0-16.972656zm-56.351563 22.351562c-9.339843 0-15.863281-5.703125-15.863281-13.867187 0-8.164063 6.523438-13.867188 15.863281-13.867188 13.28125 0 30.554688 8.132813 41.082032 13.867188-10.527344 5.734375-27.800782 13.867187-41.082032 13.867187zm0 0"/></svg>